# xmcd
#
# Track frame offsets: 
#        150
#        14750
#        30302
#        46135
#        67822
#        80172
#        92235
#        111185
#        124527
#        136602
#        154215
#
# Disc length: 2272 seconds
#
# Revision: 2
# Processed by: cddbd v1.5.2PL0 Copyright (c) Steve Scherf et al.
# Submitted via: ExactAudioCopy v0.99pb4
#
DISCID=8508de0b
DTITLE=The 5th Dimension - Greatest Hits on Earth
DYEAR=1972
DGENRE=Pop
TTITLE0=(Last Night) I Didn't Get To Sleep At All
TTITLE1=Stoned Soul Picnic
TTITLE2=One Less Bell To Answer
TTITLE3=Medley: Aquarius - Let The Sunshine In (The Flesh Failures)
TTITLE4=Wedding Bell Blues
TTITLE5=Save The Country
TTITLE6=Love's Lines, Angles And Rhymes
TTITLE7=Puppet Man
TTITLE8=Up, Up And Away
TTITLE9=Never My Love
TTITLE10=Together Let's Find Love
EXTD=YEAR: 1972
EXTT0=
EXTT1=
EXTT2=
EXTT3=
EXTT4=
EXTT5=
EXTT6=
EXTT7=
EXTT8=
EXTT9=
EXTT10=
PLAYORDER=
